<svg class="svg-icon" style="width: 1em;height: 1em;vertical-align: middle;fill: currentColor;overflow: hidden;" viewBox="0 0 1024 1024" version="1.1" xmlns="http://www.w3.org/2000/svg"><path d="M803.6 104.3c-44.6 0-84.8 18.7-113.3 48.6-53.3-28.1-113.9-44-178.2-44-64.4 0-125.1 15.9-178.3 44-28.4-29.9-68.7-48.6-113.3-48.6-86.4 0-156.5 70-156.5 156.4 0 63.6 37.9 118.2 92.3 142.7 39.6-92.7 114.3-166.6 207.5-205.3-2.2-5.1-4.7-10-7.4-14.8 46.7-23.6 99.5-37 155.7-37 56 0 108.8 13.3 155.6 37-2.7 4.8-5.2 9.8-7.5 14.9 93.2 38.6 167.9 112.7 207.5 205.3C922.1 379 960 324.3 960 260.8c0.1-86.6-70-156.5-156.4-156.5z"  /><path d="M875.1 550.7C875 367.4 739 215.6 562.4 191.2c0.2-1.1 0.2-2.3 0.2-3.5 0-14.1-11.3-25.3-25.3-25.3h-50.5c-14 0-25.3 11.4-25.3 25.3 0 1.2 0.1 2.3 0.2 3.5-176.6 24.5-312.6 176.1-312.6 359.5 0 100.9 41.1 192.2 107.6 257.9-4 19.9-16.2 89.6 3.4 107.2 17.8 16.1 69-22 90.9-39.7 48.5 24 103.2 37.6 161.1 37.6 57.8 0 112.5-13.5 161-37.6 21.9 17.8 73.1 55.8 90.9 39.7 19.6-17.6 7.4-87.1 3.4-107.1 66.5-65.8 107.7-157.1 107.7-258zM294.4 768.4c-55.7-55.8-90.2-132.6-90.2-217.7 0-85.2 34.5-162 90.2-217.7 55.9-55.7 132.6-90.2 217.7-90.2s161.8 34.5 217.7 90.2c55.7 55.7 90.2 132.6 90.2 217.7s-34.5 161.8-90.2 217.7c-55.8 55.7-132.6 90.2-217.7 90.2s-161.8-34.5-217.7-90.2z"  /><path d="M562.5 566.9c1.6-5.1 2.5-10.5 2.5-16.2 0-22.3-13.8-41.4-33.4-49.2v-145c0-10.7-8.7-19.5-19.5-19.5-10.7 0-19.5 8.7-19.5 19.5v145c-19.6 7.8-33.4 26.8-33.4 49.2 0 29.2 23.7 52.9 52.9 52.9 9.2 0 17.9-2.4 25.5-6.5L686 734.4c8 7.4 20.3 6.9 27.6-1.1 7.3-7.8 6.8-20.1-1.1-27.5l-150-138.9z"  /></svg>