<svg class="svg-icon" style="width: 1em; height: 1em;vertical-align: middle;fill: currentColor;overflow: hidden;" viewBox="0 0 1024 1024" version="1.1" xmlns="http://www.w3.org/2000/svg"><path d="M544.711111 823.466667c-149.333333 0-271.644444-122.311111-271.644444-271.644445 0-149.333333 122.311111-271.644444 271.644444-271.644444s271.644444 122.311111 271.644445 271.644444c0 149.333333-122.311111 271.644444-271.644445 271.644445z m0-486.4c-118.044444 0-214.755556 96.711111-214.755555 214.755555S426.666667 766.577778 544.711111 766.577778s214.755556-96.711111 214.755556-214.755556-96.711111-214.755556-214.755556-214.755555zM241.777778 416.711111c-7.111111 0-14.222222-2.844444-19.911111-8.533333-42.666667-42.666667-42.666667-113.777778 0-156.444445 21.333333-21.333333 48.355556-32.711111 78.222222-32.711111s56.888889 11.377778 78.222222 32.711111c11.377778 11.377778 11.377778 28.444444 0 39.822223l-116.622222 116.622222c-4.266667 5.688889-11.377778 8.533333-19.911111 8.533333z m58.311111-140.8c-14.222222 0-28.444444 5.688889-38.4 15.644445-14.222222 14.222222-18.488889 32.711111-14.222222 51.2l65.422222-65.422223c-4.266667-1.422222-8.533333-1.422222-12.8-1.422222zM847.644444 416.711111c-7.111111 0-14.222222-2.844444-19.911111-8.533333L711.111111 291.555556c-5.688889-5.688889-8.533333-12.8-8.533333-19.911112s2.844444-14.222222 8.533333-19.911111c42.666667-42.666667 113.777778-42.666667 156.444445 0s42.666667 113.777778 0 156.444445c-4.266667 5.688889-11.377778 8.533333-19.911112 8.533333z m-69.688888-139.377778l65.422222 65.422223c4.266667-17.066667 0-36.977778-14.222222-51.2s-34.133333-18.488889-51.2-14.222223z" fill="#3FA6AD" /><path d="M621.511111 583.111111h-76.8c-15.644444 0-28.444444-12.8-28.444444-28.444444v-133.688889c0-15.644444 12.8-28.444444 28.444444-28.444445s28.444444 12.8 28.444445 28.444445V526.222222h48.355555c15.644444 0 28.444444 12.8 28.444445 28.444445s-12.8 28.444444-28.444445 28.444444z" fill="#DC4569" /><path d="M779.377778 894.577778c-11.377778 0-21.333333-7.111111-27.022222-17.066667-15.644444-36.977778-39.822222-69.688889-71.111112-95.288889-12.8-9.955556-14.222222-27.022222-4.266666-39.822222 9.955556-12.8 27.022222-14.222222 39.822222-4.266667 39.822222 31.288889 69.688889 72.533333 88.177778 118.044445 5.688889 14.222222-1.422222 31.288889-15.644445 36.977778-2.844444 1.422222-7.111111 1.422222-9.955555 1.422222zM310.044444 894.577778c-4.266667 0-7.111111 0-11.377777-1.422222-14.222222-5.688889-21.333333-22.755556-15.644445-36.977778 18.488889-46.933333 49.777778-86.755556 88.177778-118.044445 12.8-9.955556 29.866667-7.111111 39.822222 4.266667 9.955556 12.8 7.111111 29.866667-4.266666 39.822222-31.288889 25.6-56.888889 58.311111-71.111112 95.288889-4.266667 11.377778-14.222222 17.066667-25.6 17.066667z" fill="#3FA6AD" /></svg>